<?xml version="1.0" encoding="iso-8859-1"?>
<!-- Uploaded to: SVG Repo, www.svgrepo.com, Generator: SVG Repo Mixer Tools -->
<svg fill="#000000" height="800px" width="800px" version="1.1" id="Layer_1" xmlns="http://www.w3.org/2000/svg" xmlns:xlink="http://www.w3.org/1999/xlink" 
	 viewBox="0 0 330 330" xml:space="preserve">
<path id="XMLID_239_" d="M285,250h-29.188l-16.581-49.744C237.189,194.131,231.457,190,225,190h-75v-49.871h75
	c8.284,0,15-6.716,15-15s-6.716-15-15-15h-75V87.42c17.459-6.192,30-22.865,30-42.42c0-24.813-20.187-45-45-45S90,20.187,90,45
	c0,19.555,12.542,36.228,30,42.42v24.396C68.522,121.241,30,166.277,30,220c0,60.654,49.346,110,110,110
	c39.827,0,75.395-21.538,94.712-54.096C237.434,278.471,241.081,280,245,280h40c8.284,0,15-6.716,15-15S293.284,250,285,250z
	 M135,30c8.271,0,15,6.729,15,15s-6.729,15-15,15s-15-6.729-15-15S126.729,30,135,30z M140,300c-44.112,0-80-35.888-80-80
	c0-37.155,25.329-68.595,60-77.483V205c0,8.284,6.716,15,15,15h79.189l4.613,13.84C212.19,271.782,178.889,300,140,300z"/>
</svg>